<svg width="48" height="47" viewBox="0 0 48 47" fill="none" xmlns="http://www.w3.org/2000/svg">
<path d="M16.0548 37.8443C16.0548 38.0387 15.8323 38.1942 15.5516 38.1942C15.2323 38.2234 15.0097 38.0679 15.0097 37.8443C15.0097 37.65 15.2323 37.4945 15.5129 37.4945C15.8032 37.4653 16.0548 37.6208 16.0548 37.8443ZM13.0452 37.407C12.9774 37.6014 13.171 37.8249 13.4613 37.8832C13.7129 37.9804 14.0032 37.8832 14.0613 37.6888C14.1194 37.4945 13.9355 37.2709 13.6452 37.1835C13.3935 37.1154 13.1129 37.2126 13.0452 37.407ZM17.3226 37.2418C17.0419 37.3098 16.8484 37.4945 16.8774 37.718C16.9065 37.9124 17.1581 38.0387 17.4484 37.9707C17.729 37.9026 17.9226 37.718 17.8935 37.5236C17.8645 37.339 17.6032 37.2126 17.3226 37.2418ZM23.6903 0C10.2677 0 0 10.2337 0 23.7134C0 34.4914 6.75484 43.7144 16.4032 46.9604C17.6419 47.1839 18.0774 46.4162 18.0774 45.7844C18.0774 45.1819 18.0484 41.8581 18.0484 39.8172C18.0484 39.8172 11.2742 41.275 9.85161 36.9211C9.85161 36.9211 8.74839 34.0929 7.16129 33.364C7.16129 33.364 4.94516 31.8382 7.31613 31.8674C7.31613 31.8674 9.72581 32.0617 11.0516 34.3748C13.171 38.1262 16.7226 37.0474 18.1065 36.406C18.329 34.851 18.9581 33.7722 19.6548 33.1308C14.2452 32.5282 8.7871 31.741 8.7871 22.3917C8.7871 19.7191 9.52258 18.3779 11.071 16.6674C10.8194 16.0357 9.99677 13.4311 11.3226 10.0685C13.3452 9.43679 18 12.6925 18 12.6925C19.9355 12.1483 22.0161 11.8664 24.0774 11.8664C26.1387 11.8664 28.2194 12.1483 30.1548 12.6925C30.1548 12.6925 34.8097 9.42707 36.8323 10.0685C38.1581 13.4409 37.3355 16.0357 37.0839 16.6674C38.6323 18.3876 39.5806 19.7288 39.5806 22.3917C39.5806 31.7702 33.8806 32.5185 28.471 33.1308C29.3613 33.8986 30.1161 35.3564 30.1161 37.6402C30.1161 40.9154 30.0871 44.9681 30.0871 45.765C30.0871 46.3967 30.5323 47.1645 31.7613 46.941C41.4387 43.7144 48 34.4914 48 23.7134C48 10.2337 37.1129 0 23.6903 0ZM9.40645 33.5195C9.28065 33.6167 9.30968 33.8403 9.47419 34.0249C9.62903 34.1804 9.85161 34.2484 9.97742 34.1221C10.1032 34.0249 10.0742 33.8014 9.90968 33.6167C9.75484 33.4612 9.53226 33.3932 9.40645 33.5195ZM8.36129 32.7323C8.29355 32.8587 8.39032 33.0142 8.58387 33.1114C8.73871 33.2085 8.93226 33.1794 9 33.0433C9.06774 32.917 8.97097 32.7615 8.77742 32.6643C8.58387 32.606 8.42903 32.6351 8.36129 32.7323ZM11.4968 36.1922C11.3419 36.3185 11.4 36.6101 11.6226 36.7947C11.8452 37.0182 12.1258 37.0474 12.2516 36.8919C12.3774 36.7656 12.3194 36.474 12.1258 36.2893C11.9129 36.0658 11.6226 36.0367 11.4968 36.1922ZM10.3935 34.7635C10.2387 34.8607 10.2387 35.1134 10.3935 35.3369C10.5484 35.5605 10.8097 35.6576 10.9355 35.5605C11.0903 35.4341 11.0903 35.1814 10.9355 34.9579C10.8 34.7344 10.5484 34.6372 10.3935 34.7635Z" fill="white"/>
</svg>
