<svg width="49" height="49" viewBox="0 0 49 49" fill="none" xmlns="http://www.w3.org/2000/svg">
<circle cx="24.5" cy="24.5" r="24.5" fill="white"/>
<path fill-rule="evenodd" clip-rule="evenodd" d="M21.1435 19.4535H26.7145V22.2285C27.517 20.6325 29.575 19.1985 32.6665 19.1985C38.593 19.1985 40 22.3755 40 28.2045V39H34V29.532C34 26.2125 33.1975 24.3405 31.1545 24.3405C28.321 24.3405 27.1435 26.358 27.1435 29.5305V39H21.1435V19.4535ZM10.855 38.745H16.855V19.1985H10.855V38.745ZM17.7145 12.825C17.7147 13.3279 17.615 13.8259 17.4211 14.2899C17.2272 14.7539 16.943 15.1748 16.585 15.528C15.8596 16.2489 14.8777 16.6525 13.855 16.65C12.8341 16.6493 11.8545 16.2468 11.128 15.5295C10.7713 15.1751 10.4881 14.7537 10.2945 14.2896C10.101 13.8256 10.0009 13.3278 10 12.825C10 11.8095 10.405 10.8375 11.1295 10.1205C11.8553 9.40224 12.8354 8.99955 13.8565 9C14.8795 9 15.8605 9.4035 16.585 10.1205C17.308 10.8375 17.7145 11.8095 17.7145 12.825Z" fill="#1A202C"/>
</svg>
