<svg width="46" height="41" viewBox="0 0 46 41" fill="none" xmlns="http://www.w3.org/2000/svg">
<path d="M1.31737 29.2857H28.2541C28.4271 29.2858 28.5985 29.2555 28.7584 29.1966C28.9182 29.1376 29.0635 29.0511 29.1859 28.9421C29.3082 28.833 29.4053 28.7035 29.4714 28.561C29.5376 28.4185 29.5716 28.2658 29.5714 28.1115V24.6027C29.5716 24.4485 29.5376 24.2958 29.4714 24.1533C29.4053 24.0108 29.3082 23.8813 29.1859 23.7722C29.0635 23.6632 28.9182 23.5767 28.7584 23.5177C28.5985 23.4587 28.4271 23.4285 28.2541 23.4286H1.31737C1.14433 23.4285 0.972964 23.4587 0.813073 23.5177C0.653181 23.5767 0.507903 23.6632 0.385547 23.7722C0.263191 23.8813 0.16616 24.0108 0.100004 24.1533C0.0338479 24.2958 -0.000134626 24.4485 4.00812e-07 24.6027V28.1115C-0.000134626 28.2658 0.0338479 28.4185 0.100004 28.561C0.16616 28.7035 0.263191 28.833 0.385547 28.9421C0.507903 29.0511 0.653181 29.1376 0.813073 29.1966C0.972964 29.2555 1.14433 29.2858 1.31737 29.2857ZM1.31737 5.85714H28.2541C28.4271 5.85726 28.5985 5.82697 28.7584 5.76801C28.9182 5.70904 29.0635 5.62256 29.1859 5.5135C29.3082 5.40445 29.4053 5.27496 29.4714 5.13245C29.5376 4.98994 29.5716 4.8372 29.5714 4.68297V1.17417C29.5716 1.01995 29.5376 0.867207 29.4714 0.724695C29.4053 0.582184 29.3082 0.452696 29.1859 0.34364C29.0635 0.234583 28.9182 0.148099 28.7584 0.0891338C28.5985 0.0301686 28.4271 -0.000119993 28.2541 3.57247e-07H1.31737C1.14433 -0.000119993 0.972964 0.0301686 0.813073 0.0891338C0.653181 0.148099 0.507903 0.234583 0.385547 0.34364C0.263191 0.452696 0.16616 0.582184 0.100004 0.724695C0.0338479 0.867207 -0.000134626 1.01995 4.00812e-07 1.17417V4.68297C-0.000134626 4.8372 0.0338479 4.98994 0.100004 5.13245C0.16616 5.27496 0.263191 5.40445 0.385547 5.5135C0.507903 5.62256 0.653181 5.70904 0.813073 5.76801C0.972964 5.82697 1.14433 5.85726 1.31737 5.85714ZM44.3571 11.7143H1.64286C1.20714 11.7143 0.789278 11.8686 0.481182 12.1432C0.173087 12.4178 4.00812e-07 12.7902 4.00812e-07 13.1786V16.1071C4.00812e-07 16.4955 0.173087 16.8679 0.481182 17.1425C0.789278 17.4172 1.20714 17.5714 1.64286 17.5714H44.3571C44.7929 17.5714 45.2107 17.4172 45.5188 17.1425C45.8269 16.8679 46 16.4955 46 16.1071V13.1786C46 12.7902 45.8269 12.4178 45.5188 12.1432C45.2107 11.8686 44.7929 11.7143 44.3571 11.7143ZM44.3571 35.1429H1.64286C1.20714 35.1429 0.789278 35.2971 0.481182 35.5717C0.173087 35.8463 4.00812e-07 36.2188 4.00812e-07 36.6071V39.5357C4.00812e-07 39.9241 0.173087 40.2965 0.481182 40.5711C0.789278 40.8457 1.20714 41 1.64286 41H44.3571C44.7929 41 45.2107 40.8457 45.5188 40.5711C45.8269 40.2965 46 39.9241 46 39.5357V36.6071C46 36.2188 45.8269 35.8463 45.5188 35.5717C45.2107 35.2971 44.7929 35.1429 44.3571 35.1429Z" fill="white"/>
</svg>
