<svg width="192" height="27" viewBox="0 0 192 27" fill="none" xmlns="http://www.w3.org/2000/svg">
<path d="M13.7285 0.40625V26H8.47266V0.40625H13.7285ZM21.6035 0.40625V4.53711H0.720703V0.40625H21.6035ZM41.6222 0.40625H46.878V17.3164C46.878 19.2852 46.4562 20.9434 45.6124 22.291C44.7804 23.6387 43.6261 24.6523 42.1495 25.332C40.6847 26.0117 38.9972 26.3516 37.087 26.3516C35.1769 26.3516 33.4777 26.0117 31.9894 25.332C30.5128 24.6523 29.3527 23.6387 28.5089 22.291C27.6769 20.9434 27.2609 19.2852 27.2609 17.3164V0.40625H32.5343V17.3164C32.5343 18.4648 32.7159 19.4023 33.0792 20.1289C33.4425 20.8555 33.964 21.3887 34.6437 21.7285C35.3351 22.0684 36.1495 22.2383 37.087 22.2383C38.048 22.2383 38.8624 22.0684 39.5304 21.7285C40.2101 21.3887 40.7257 20.8555 41.0773 20.1289C41.4405 19.4023 41.6222 18.4648 41.6222 17.3164V0.40625ZM56.508 0.40625H60.9729L67.5471 19.1973L74.1213 0.40625H78.5862L69.3401 26H65.7541L56.508 0.40625ZM54.0998 0.40625H58.5471L59.3557 18.7227V26H54.0998V0.40625ZM76.5471 0.40625H81.012V26H75.7385V18.7227L76.5471 0.40625ZM94.1224 0.40625V26H88.8666V0.40625H94.1224ZM122.772 0.40625V26H117.499L107.215 8.84375V26H101.942V0.40625H107.215L117.516 17.5801V0.40625H122.772ZM135.847 0.40625V26H130.591V0.40625H135.847ZM164.497 0.40625V26H159.223L148.94 8.84375V26H143.667V0.40625H148.94L159.241 17.5801V0.40625H164.497ZM186.098 0.40625H191.353V17.3164C191.353 19.2852 190.931 20.9434 190.088 22.291C189.256 23.6387 188.101 24.6523 186.625 25.332C185.16 26.0117 183.473 26.3516 181.562 26.3516C179.652 26.3516 177.953 26.0117 176.465 25.332C174.988 24.6523 173.828 23.6387 172.984 22.291C172.152 20.9434 171.736 19.2852 171.736 17.3164V0.40625H177.01V17.3164C177.01 18.4648 177.191 19.4023 177.555 20.1289C177.918 20.8555 178.439 21.3887 179.119 21.7285C179.81 22.0684 180.625 22.2383 181.562 22.2383C182.523 22.2383 183.338 22.0684 184.006 21.7285C184.685 21.3887 185.201 20.8555 185.553 20.1289C185.916 19.4023 186.098 18.4648 186.098 17.3164V0.40625Z" fill="white"/>
</svg>
